<svg width="24" height="24" viewBox="0 0 24 24" fill="none" xmlns="http://www.w3.org/2000/svg">
<path d="M11 5V1H13V5H11ZM17.65 7.75L16.275 6.375L19.075 3.5L20.475 4.925L17.65 7.75ZM19 13V11H23V13H19ZM6.35 7.7L3.5 4.925L4.925 3.525L7.75 6.35L6.35 7.7ZM19.05 20.5L16.275 17.625L17.625 16.275L20.475 19.025L19.05 20.5ZM12 18C10.3333 18 8.91667 17.4167 7.75 16.25C6.58333 15.0833 6 13.6667 6 12C6 10.3333 6.58333 8.91667 7.75 7.75C8.91667 6.58333 10.3333 6 12 6C13.6667 6 15.0833 6.58333 16.25 7.75C17.4167 8.91667 18 10.3333 18 12C18 13.6667 17.4167 15.0833 16.25 16.25C15.0833 17.4167 13.6667 18 12 18Z" fill="#FF8148"/>
<path d="M2.7625 20.2375C3.9375 21.4125 5.35 22 7 22H13.75C14.8 22 15.6875 21.6375 16.4125 20.9125C17.1375 20.1875 17.5 19.3 17.5 18.25C17.5 17.2 17.1438 16.3125 16.4313 15.5875C15.7188 14.8625 14.8375 14.5 13.7875 14.5H12.8875L12.5125 13.6375C12.0625 12.5125 11.3313 11.625 10.3188 10.975C9.30625 10.325 8.2 10 7 10C5.35 10 3.9375 10.5875 2.7625 11.7625C1.5875 12.9375 1 14.35 1 16C1 17.65 1.5875 19.0625 2.7625 20.2375Z" fill="white"/>
</svg>
