<svg width="24" height="24" viewBox="0 0 24 24" fill="none" xmlns="http://www.w3.org/2000/svg">
<path d="M13.1 21C11.7 21 10.3875 20.7333 9.1625 20.2C7.9375 19.6667 6.87083 18.9458 5.9625 18.0375C5.05417 17.1292 4.33333 16.0625 3.8 14.8375C3.26667 13.6125 3 12.3 3 10.9C3 8.46667 3.775 6.32083 5.325 4.4625C6.875 2.60417 8.85 1.45 11.25 1C10.95 2.65 11.0417 4.2625 11.525 5.8375C12.0083 7.4125 12.8417 8.79167 14.025 9.975C15.2083 11.1583 16.5875 11.9917 18.1625 12.475C19.7375 12.9583 21.35 13.05 23 12.75C22.5667 15.15 21.4167 17.125 19.55 18.675C17.6833 20.225 15.5333 21 13.1 21Z" fill="#F2D41B"/>
<path d="M2.7625 20.2375C3.9375 21.4125 5.35 22 7 22H13.75C14.8 22 15.6875 21.6375 16.4125 20.9125C17.1375 20.1875 17.5 19.3 17.5 18.25C17.5 17.2 17.1438 16.3125 16.4313 15.5875C15.7188 14.8625 14.8375 14.5 13.7875 14.5H12.8875L12.5125 13.6375C12.0625 12.5125 11.3313 11.625 10.3188 10.975C9.30625 10.325 8.2 10 7 10C5.35 10 3.9375 10.5875 2.7625 11.7625C1.5875 12.9375 1 14.35 1 16C1 17.65 1.5875 19.0625 2.7625 20.2375Z" fill="#BAB5FB"/>
</svg>
