<svg width="64" height="64" viewBox="0 0 64 64" fill="none" xmlns="http://www.w3.org/2000/svg">
<path d="M2.35301 31.3254C2.17967 32.1178 2.66765 32.9044 3.45456 33.1012L8.18033 34.2826L8.13703 35.9711C8.12667 36.3755 8.28004 36.7669 8.56237 37.0566C8.8447 37.3462 9.23205 37.5096 9.63654 37.5096H32.9093C33.3138 37.5096 33.7011 37.3462 33.9834 37.0566C34.2658 36.7669 34.4191 36.3755 34.4088 35.9711L34.3655 34.2826L39.0913 33.1012C39.8782 32.9044 40.3661 32.1178 40.1928 31.3254L35.1019 8.05268C34.9855 7.52036 34.5895 7.09306 34.0676 6.93649L26.7948 4.75467C26.655 4.71272 26.5098 4.69141 26.3638 4.69141H16.182C16.036 4.69141 15.8908 4.71272 15.751 4.75467L8.47825 6.93649C7.95633 7.09306 7.56036 7.52036 7.44392 8.05268L2.35301 31.3254Z" fill="#10D69E" stroke="#10D69E" stroke-width="3" stroke-linejoin="round"/>
<path d="M10.364 7.646L9.63672 36.0096H32.9094L32.1822 7.646" stroke="#434D58" stroke-width="2"/>
<path d="M9.63654 33.1005L3.81836 31.646L8.90927 8.37322L16.182 6.19141C16.182 6.19141 24.5929 6.19141 26.3638 6.19141L33.6365 8.37322L38.7275 31.646L32.9093 33.1005" stroke="#434D58" stroke-width="2"/>
<path d="M21.2729 19.2822V36.0095" stroke="#434D58" stroke-width="3.5"/>
<path d="M15.4546 6.19141L21.2728 23.646L27.091 6.19141" stroke="#434D58" stroke-width="3.5"/>
<path d="M41.9089 28.0922C41.7118 27.6625 41.3236 27.351 40.8615 27.2515C38.6835 26.7824 36.8949 24.9633 35.1958 22.721C34.878 22.3017 34.3638 22.0795 33.8407 22.1355C33.3176 22.1914 32.862 22.5173 32.6401 22.9944L18.1608 54.125L16.0729 56.9088C15.6251 57.506 15.6845 58.3416 16.2123 58.8694C16.7401 59.3973 17.5758 59.4567 18.1729 59.0088L20.9567 56.921L52.0874 42.4416C52.5644 42.2197 52.8903 41.7641 52.9463 41.241C53.0022 40.7179 52.78 40.2037 52.3607 39.886C50.1184 38.1868 48.2993 36.3982 47.8302 34.2202C47.7307 33.7581 47.4192 33.37 46.9896 33.1728C44.7481 32.144 42.9377 30.3336 41.9089 28.0922Z" fill="#10D69E" stroke="#10D69E" stroke-width="3" stroke-linejoin="round"/>
<path d="M46.0303 31.2328L47.091 32.2934L48.1517 31.2328L52.5023 26.8822L52.5023 26.8821L52.5153 26.8691L52.5153 26.8691L53.6062 25.7782C53.6123 25.7721 53.6165 25.7699 53.6196 25.7687C53.6237 25.7671 53.6294 25.7657 53.6365 25.7657C53.6435 25.7657 53.6493 25.7671 53.6533 25.7687C53.6564 25.7699 53.6606 25.7721 53.6667 25.7782C53.6728 25.7843 53.675 25.7885 53.6762 25.7916C53.6779 25.7957 53.6792 25.8014 53.6792 25.8085C53.6792 25.8155 53.6779 25.8213 53.6762 25.8253C53.675 25.8284 53.6728 25.8326 53.6667 25.8387L52.5758 26.9296L53.6365 27.9903L52.5758 26.9296L52.2122 27.2933C51.0239 28.4815 51.0239 30.4081 52.2122 31.5964C53.4005 32.7846 55.327 32.7846 56.5153 31.5964L57.9677 30.1439C57.968 30.1436 57.9684 30.1433 57.9687 30.1429C60.3659 27.7543 60.3472 23.8692 57.9579 21.4893C55.5748 19.1158 51.7049 19.102 49.3095 21.4686L49.3095 21.4686L49.303 21.475L48.2122 22.566L48.2121 22.566L43.8485 26.9296L42.7879 27.9903L43.8485 29.0509L46.0303 31.2328Z" fill="#10D69E" stroke="#10D69E" stroke-width="3"/>
<path d="M40.5455 28.7176C41.7239 31.2852 43.7961 33.3574 46.3637 34.5358C46.9585 37.2976 48.4757 39.3751 50.7273 41.0813L19.4546 55.6267L34 24.354C35.7063 26.6057 37.7837 28.1229 40.5455 28.7176Z" stroke="#434D58" stroke-width="2"/>
<path d="M51.4546 25.8086L51.4416 25.8216M51.4416 25.8216L47.091 30.1722L44.9092 27.9904L49.2728 23.6268L50.3637 22.5358V22.5358C52.1718 20.7495 55.0985 20.7586 56.8993 22.5522V22.5522C58.7046 24.3503 58.7145 27.2832 56.9092 29.0812V29.0812L55.4546 30.5358C54.8521 31.1383 53.8753 31.1383 53.2728 30.5358V30.5358C52.6703 29.9334 52.6703 28.9565 53.2728 28.354L53.6365 27.9904L54.7274 26.8995C55.3299 26.297 55.3299 25.3202 54.7274 24.7177V24.7177C54.1249 24.1152 53.148 24.1152 52.5455 24.7177L51.4416 25.8216Z" stroke="#434D58" stroke-width="2"/>
<path d="M40.5457 28.7178L28.9093 43.2632L17.2729 57.8087L46.3639 34.536" stroke="#434D58" stroke-width="2"/>
<path d="M43.0913 32.0098L45.6368 29.4644" stroke="#434D58" stroke-width="3.5"/>
</svg>
