<svg width="64" height="64" viewBox="0 0 64 64" fill="none" xmlns="http://www.w3.org/2000/svg">
<path d="M6.53465 46.1795C6.36131 46.9718 6.84929 47.7585 7.6362 47.9552L14.5716 49.6891L14.5005 52.4616C14.4901 52.8659 14.6435 53.2573 14.9258 53.547C15.2082 53.8366 15.5955 54 16 54H48C48.4045 54 48.7918 53.8366 49.0742 53.547C49.3565 53.2573 49.5099 52.8659 49.4995 52.4616L49.4284 49.6891L56.3638 47.9552C57.1507 47.7585 57.6387 46.9718 57.4654 46.1795L50.4654 14.1795C50.3489 13.6471 49.9529 13.2198 49.431 13.0633L39.431 10.0633C39.2912 10.0213 39.146 10 39 10H25C24.854 10 24.7088 10.0213 24.569 10.0633L14.569 13.0633C14.0471 13.2198 13.6511 13.6471 13.5347 14.1795L6.53465 46.1795Z" fill="#10D69E" stroke="#10D69E" stroke-width="3" stroke-linejoin="round"/>
<path d="M17 13.5L16 52.5H48L47 13.5" stroke="#434D58" stroke-width="2"/>
<path d="M16 48.5L8 46.5L15 14.5L25 11.5C25 11.5 36.5649 11.5 39 11.5L49 14.5L56 46.5L48 48.5" stroke="#434D58" stroke-width="2"/>
<path d="M32 29.5V52.5" stroke="#434D58" stroke-width="3.5"/>
<path d="M24 11.5L32 35.5L40 11.5" stroke="#434D58" stroke-width="3.5"/>
</svg>
