<svg width="64" height="64" viewBox="0 0 64 64" fill="none" xmlns="http://www.w3.org/2000/svg">
<path d="M6.88133 34.7531C6.70799 35.5455 7.19597 36.3322 7.98288 36.5289L12.7087 37.7103L12.6654 39.3989C12.655 39.8032 12.8084 40.1946 13.0907 40.4843C13.373 40.774 13.7604 40.9373 14.1649 40.9373H37.4376C37.8421 40.9373 38.2294 40.774 38.5118 40.4843C38.7941 40.1946 38.9475 39.8032 38.9371 39.3989L38.8938 37.7103L43.6196 36.5289C44.4065 36.3322 44.8945 35.5455 44.7211 34.7531L39.6302 11.4804C39.5138 10.9481 39.1178 10.5208 38.5959 10.3642L31.3232 8.1824C31.1833 8.14045 31.0381 8.11914 30.8921 8.11914H20.7103C20.5643 8.11914 20.4191 8.14045 20.2793 8.1824L13.0066 10.3642C12.4846 10.5208 12.0887 10.9481 11.9722 11.4804L6.88133 34.7531Z" fill="#10D69E" stroke="#10D69E" stroke-width="3" stroke-linejoin="round"/>
<path d="M14.8923 11.0737L14.165 39.4374H37.4378L36.7105 11.0737" stroke="#434D58" stroke-width="2"/>
<path d="M14.1649 36.5282L8.34668 35.0737L13.4376 11.801L20.7103 9.61914C20.7103 9.61914 29.1212 9.61914 30.8921 9.61914L38.1649 11.801L43.2558 35.0737L37.4376 36.5282" stroke="#434D58" stroke-width="2"/>
<path d="M25.8013 22.71V39.4372" stroke="#434D58" stroke-width="3.5"/>
<path d="M19.9829 9.61914L25.8011 27.0737L31.6193 9.61914" stroke="#434D58" stroke-width="3.5"/>
<path d="M29.7569 47.8557L35.9284 54.0273C37.2953 55.3941 39.5114 55.3941 40.8782 54.0273L54.5498 40.3557C55.9166 38.9889 55.9166 36.7728 54.5498 35.406L48.3782 29.2344C47.0114 27.8676 44.7953 27.8676 43.4284 29.2344L29.7569 42.906C28.39 44.2728 28.39 46.4889 29.7569 47.8557Z" fill="#10D69E" stroke="#10D69E" stroke-width="3" stroke-linejoin="round"/>
<path d="M50.0927 29.3202C49.5069 29.906 49.5069 30.8557 50.0927 31.4415L52.3427 33.6915C52.9284 34.2773 53.8782 34.2773 54.464 33.6915L56.714 31.4415C57.2998 30.8557 57.2998 29.906 56.714 29.3202L54.464 27.0702C53.8782 26.4844 52.9284 26.4844 52.3427 27.0702L50.0927 29.3202Z" fill="#10D69E" stroke="#10D69E" stroke-width="3" stroke-linejoin="round"/>
<path d="M36.9891 52.9666L30.8175 46.7951C30.0365 46.014 30.0365 44.7477 30.8175 43.9666L44.4891 30.2951C45.2702 29.514 46.5365 29.514 47.3175 30.2951L53.4891 36.4666C54.2702 37.2477 54.2702 38.514 53.4891 39.2951L39.8175 52.9666C39.0365 53.7477 37.7702 53.7477 36.9891 52.9666Z" stroke="#434D58" stroke-width="2"/>
<path d="M53.4033 32.6309L51.1533 30.3809L53.4033 28.1309L55.6533 30.3809L53.4033 32.6309Z" stroke="#434D58" stroke-width="2"/>
<path d="M37.2783 53.2559V53.2559C36.657 52.6345 36.657 51.6272 37.2783 51.0059L42.1533 46.1309M54.1533 37.1309H52.8102C51.7493 37.1309 50.7319 37.5523 49.9817 38.3024L45.9033 42.3809" stroke="#434D58" stroke-width="2"/>
<path d="M37.2783 53.2559L33.0675 49.0451C32.2865 48.264 32.2865 46.9977 33.0675 46.2166L37.6533 41.6309M53.7783 36.7559L50.9817 33.9593C49.4197 32.3972 46.887 32.3972 45.3249 33.9593L41.4033 37.8809" stroke="#434D58" stroke-width="2"/>
<path d="M35.4033 39.3809L44.4033 48.3809" stroke="#434D58" stroke-width="2"/>
<path d="M50.4033 33.3809L51.9033 31.8809" stroke="#434D58" stroke-width="3.5"/>
<path d="M39.1533 35.6309L48.1533 44.6309" stroke="#434D58" stroke-width="2"/>
</svg>
