<svg width="64" height="64" viewBox="0 0 64 64" fill="none" xmlns="http://www.w3.org/2000/svg">
<path d="M6.53465 46.1795C6.36131 46.9718 6.84929 47.7585 7.6362 47.9552L14.6028 49.6969L14.501 52.4445C14.4859 52.8517 14.6372 53.2474 14.9199 53.5408C15.2026 53.8342 15.5925 54 16 54H48C48.4075 54 48.7974 53.8342 49.0801 53.5408C49.3628 53.2474 49.5141 52.8517 49.499 52.4445L49.3972 49.6969L56.3638 47.9552C57.1507 47.7585 57.6387 46.9718 57.4654 46.1795L50.4654 14.1795C50.3489 13.6471 49.9529 13.2198 49.431 13.0633L39.431 10.0633C38.985 9.92945 38.5021 10.0104 38.124 10.2823C36.4005 11.5222 34.2877 12.2521 32 12.2521C29.7123 12.2521 27.5995 11.5222 25.876 10.2823C25.4979 10.0104 25.015 9.92945 24.569 10.0633L14.569 13.0633C14.0471 13.2198 13.6511 13.6471 13.5347 14.1795L6.53465 46.1795Z" fill="#F8AF20" stroke="#F8AF20" stroke-width="3" stroke-linejoin="round"/>
<path d="M16 14.5L17 25.5L16 52.5H48L47 25.5L48 14.5" stroke="#434D58" stroke-width="2"/>
<path d="M16 48.5L8 46.5L15 14.5L25 11.5C26.9702 12.9173 29.3876 13.7521 32 13.7521C34.6124 13.7521 37.0298 12.9173 39 11.5L49 14.5L56 46.5L48 48.5" stroke="#434D58" stroke-width="2"/>
<path d="M24 12C26.2284 13.8837 28.9984 15 32 15C35.0016 15 37.7716 13.8837 40 12" stroke="#434D58" stroke-width="3"/>
</svg>
