<svg width="64" height="64" viewBox="0 0 64 64" fill="none" xmlns="http://www.w3.org/2000/svg">
<path d="M14.5 51.5C14.5 52.3284 15.1716 53 16 53H48C48.8284 53 49.5 52.3284 49.5 51.5V29.5C49.5 29.3581 49.4799 29.217 49.4402 29.0808C48.1855 24.7704 47.5 20.2136 47.5 15.5V15C47.5 14.3661 47.1015 13.8006 46.5045 13.5874L39.5045 11.0874C39.0403 10.9216 38.5242 10.9945 38.124 11.2823C36.4005 12.5222 34.2877 13.2521 32 13.2521C29.7123 13.2521 27.5995 12.5222 25.876 11.2823C25.4758 10.9945 24.9597 10.9216 24.4955 11.0874L17.4955 13.5874C16.8985 13.8006 16.5 14.3661 16.5 15V15.5C16.5 20.2136 15.8145 24.7704 14.5598 29.0808C14.5201 29.217 14.5 29.3581 14.5 29.5V51.5Z" fill="#F8AF20" stroke="#F8AF20" stroke-width="3" stroke-linejoin="round"/>
<path d="M16 51.5V29.5C17.2931 25.0576 18 20.3598 18 15.5V15L25 12.5C26.9702 13.9173 29.3876 14.7521 32 14.7521C34.6124 14.7521 37.0298 13.9173 39 12.5L46 15V15.5C46 20.3598 46.7069 25.0576 48 29.5V51.5H16Z" stroke="#434D58" stroke-width="2"/>
<path d="M24 13.5C26.2284 15.3837 28.9984 16.5 32 16.5C35.0016 16.5 37.7716 15.3837 40 13.5" stroke="#434D58" stroke-width="2" stroke-linecap="square"/>
</svg>
