<svg width="64" height="64" viewBox="0 0 64 64" fill="none" xmlns="http://www.w3.org/2000/svg">
<path d="M52.4959 58.3892C52.5567 59.21 51.9448 59.9265 51.1246 59.9948L39.1246 60.9948C38.3536 61.0591 37.6603 60.5265 37.5236 59.765L32 28.9907L26.4764 59.765C26.3397 60.5265 25.6464 61.0591 24.8754 60.9948L12.8754 59.9948C12.0552 59.9265 11.4433 59.21 11.5041 58.3892L15.5041 4.38919C15.5621 3.6059 16.2146 3 17 3H47C47.7854 3 48.4379 3.6059 48.4959 4.38919L52.4959 58.3892Z" fill="#80C3FF" stroke="#80C3FF" stroke-width="3" stroke-linejoin="round"/>
<path d="M51 58.5L47 4.5H17L13 58.5L25 59.5L32 20.5L39 59.5L51 58.5Z" stroke="#434D58" stroke-width="2"/>
<path d="M32 4.5V20.5" stroke="#434D58" stroke-width="2"/>
<path d="M28 4.5V17.5C28 19.1569 29.3431 20.5 31 20.5H32" stroke="#434D58" stroke-width="2"/>
<path d="M16 16.5C18.3832 14.9276 20.4276 12.8832 22 10.5V4.5" stroke="#434D58" stroke-width="2"/>
<path d="M48 16.5C45.6168 14.9276 43.5724 12.8832 42 10.5V4.5" stroke="#434D58" stroke-width="2"/>
<path d="M16 9.5L48 9.5" stroke="#434D58" stroke-width="2"/>
<path d="M51 57.5L39 58.5M13 57.5L25 58.5" stroke="#434D58" stroke-width="2"/>
</svg>
