<svg width="64" height="64" viewBox="0 0 64 64" fill="none" xmlns="http://www.w3.org/2000/svg">
<path d="M51.493 46.3555C51.5708 47.1591 50.9985 47.8801 50.1982 47.9868L35.1982 49.9868C34.4014 50.0931 33.6625 49.5523 33.5228 48.7607L32 40.1313L30.4772 48.7607C30.3375 49.5523 29.5986 50.0931 28.8018 49.9868L13.8018 47.9868C13.0015 47.8801 12.4292 47.1591 12.507 46.3555L15.507 15.3555C15.5814 14.5866 16.2275 14 17 14H47C47.7725 14 48.4186 14.5866 48.493 15.3555L51.493 46.3555Z" fill="#80C3FF" stroke="#80C3FF" stroke-width="3" stroke-linejoin="round"/>
<path d="M50 46.5L47 15.5H17L14 46.5L29 48.5L32 31.5L35 48.5L50 46.5Z" stroke="#434D58" stroke-width="2"/>
<path d="M32 15.5V31.5" stroke="#434D58" stroke-width="2"/>
<path d="M28 15.5V28.5C28 30.1569 29.3431 31.5 31 31.5H32" stroke="#434D58" stroke-width="2"/>
<path d="M16 27.5C18.3832 25.9276 20.4276 23.8832 22 21.5V15.5" stroke="#434D58" stroke-width="2"/>
<path d="M48 27.5C45.6168 25.9276 43.5724 23.8832 42 21.5V15.5" stroke="#434D58" stroke-width="2"/>
<path d="M16 20.5L48 20.5" stroke="#434D58" stroke-width="2"/>
<path d="M50 45.5L35 47.5M14 45.5L29 47.5" stroke="#434D58" stroke-width="2"/>
</svg>
