<svg width="64" height="64" viewBox="0 0 64 64" fill="none" xmlns="http://www.w3.org/2000/svg">
<path d="M5.99655 23.3851C5.69068 23.6603 5.51134 24.0492 5.50052 24.4606C5.4897 24.8719 5.64836 25.2697 5.93934 25.5607L14.5 34.1213V51.5C14.5 52.3284 15.1716 53 16 53H48C48.8284 53 49.5 52.3284 49.5 51.5V34.1213L58.0607 25.5607C58.3516 25.2697 58.5103 24.8719 58.4995 24.4606C58.4887 24.0492 58.3093 23.6603 58.0034 23.3851L48.0034 14.3851C47.864 14.2596 47.7023 14.1614 47.5267 14.0955L39.5267 11.0955C39.0573 10.9195 38.531 10.9896 38.124 11.2823C36.4005 12.5222 34.2877 13.2521 32 13.2521C29.7123 13.2521 27.5995 12.5222 25.876 11.2823C25.469 10.9896 24.9427 10.9195 24.4733 11.0955L16.4733 14.0955C16.2977 14.1614 16.136 14.2596 15.9966 14.3851L5.99655 23.3851Z" fill="#F8AF20" stroke="#F8AF20" stroke-width="3" stroke-linejoin="round"/>
<path d="M16 22.5V51.5H48V22.5" stroke="#434D58" stroke-width="2"/>
<path d="M16 33.5L7 24.5L17 15.5L25 12.5C26.9702 13.9173 29.3876 14.7521 32 14.7521C34.6124 14.7521 37.0298 13.9173 39 12.5L47 15.5L57 24.5L48 33.5" stroke="#434D58" stroke-width="2"/>
<path d="M24 13C26.2284 14.8837 28.9984 16 32 16C35.0016 16 37.7716 14.8837 40 13" stroke="#434D58" stroke-width="3"/>
</svg>
