<svg width="65" height="64" viewBox="0 0 65 64" fill="none" xmlns="http://www.w3.org/2000/svg">
<path d="M36.8633 17.8479C36.6661 17.4183 36.2779 17.1068 35.8158 17.0073C32.6022 16.3152 30.0345 13.6544 27.6955 10.5677C27.3778 10.1484 26.8636 9.92619 26.3405 9.98214C25.8174 10.0381 25.3618 10.364 25.1399 10.841L5.206 53.699L2.3 57.5736C1.85211 58.1708 1.9115 59.0065 2.43934 59.5343C2.96718 60.0621 3.80282 60.1215 4.4 59.6736L8.27466 56.7676L51.1326 36.8337C51.6096 36.6118 51.9355 36.1563 51.9915 35.6332C52.0474 35.11 51.8252 34.5958 51.4059 34.2781C48.3193 31.9391 45.6585 29.3715 44.9664 26.1578C44.8669 25.6957 44.5553 25.3075 44.1257 25.1104C40.9214 23.6397 38.3339 21.0522 36.8633 17.8479Z" fill="#10D69E" stroke="#10D69E" stroke-width="3" stroke-linejoin="round"/>
<path d="M43.4393 21.534L44.5 22.5947L45.5607 21.534L51.5427 15.552L51.5428 15.552L51.5606 15.5341L51.5607 15.534L53.0607 14.034C53.3033 13.7914 53.6967 13.7914 53.9393 14.034C54.182 14.2767 54.182 14.6701 53.9393 14.9127L52.4393 16.4127L51.9393 16.9127C50.5251 18.3269 50.5251 20.6198 51.9394 22.034C53.3536 23.4482 55.6464 23.4482 57.0606 22.034L59.0585 20.0361C59.0589 20.0357 59.0593 20.0353 59.0598 20.0349C62.1337 16.972 62.1113 11.9872 59.045 8.93312C55.9866 5.88696 51.0191 5.86979 47.9458 8.90626L47.9457 8.90624L47.9393 8.91267L46.4393 10.4127L46.4393 10.4128L40.4393 16.4127L39.3787 17.4734L40.4393 18.534L43.4393 21.534Z" fill="#10D69E" stroke="#10D69E" stroke-width="3"/>
<path d="M35.5 18.4736C37.1203 22.0041 39.9696 24.8533 43.5 26.4736C44.3178 30.2711 46.404 33.1276 49.5 35.4736L6.5 55.4736L26.5 12.4736C28.8461 15.5697 31.7026 17.6558 35.5 18.4736Z" stroke="#434D58" stroke-width="2"/>
<path d="M50.5 14.4736L50.4821 14.4915M50.4821 14.4915L44.5 20.4736L41.5 17.4736L47.5 11.4736L49 9.97347V9.97347C51.486 7.51728 55.5104 7.52984 57.9864 9.99606V9.99606C60.4687 12.4685 60.4824 16.5011 58 18.9735V18.9735L56 20.9735C55.1716 21.8019 53.8284 21.8019 53 20.9735V20.9735C52.1716 20.1451 52.1716 18.802 53 17.9736L53.5 17.4736L55 15.9736C55.8284 15.1451 55.8284 13.802 55 12.9736V12.9736C54.1716 12.1451 52.8284 12.1451 52 12.9736L50.4821 14.4915Z" stroke="#434D58" stroke-width="2"/>
<path d="M35.5 18.4736L19.5 38.4736L3.5 58.4736L43.5 26.4736" stroke="#434D58" stroke-width="2"/>
<path d="M39 23L42.5 19.5" stroke="#434D58" stroke-width="3.5"/>
</svg>
