<svg width="64" height="64" viewBox="0 0 64 64" fill="none" xmlns="http://www.w3.org/2000/svg">
<path d="M22.7057 8.02913C22.0946 8.15135 21.6228 8.63868 21.5203 9.2534L20.6783 14.3057L14.1828 16.0772C11.4421 16.8246 9.35892 19.0564 8.80179 21.842L4.29698 44.3661C3.71021 47.2999 5.57633 50.1647 8.49706 50.8137L12.4999 51.7033V52.5316C12.4999 53.4013 12.7024 54.2591 13.0913 55.037C13.6929 56.2401 14.9225 57 16.2676 57H46.8195C48.7672 57 50.4965 55.7536 51.1124 53.9058C51.3495 53.1946 51.4792 52.4525 51.4976 51.7038L55.5027 50.8137C58.4235 50.1647 60.2896 47.2999 59.7028 44.3661L55.198 21.842C54.6409 19.0564 52.5577 16.8246 49.817 16.0772L43.3215 14.3057L42.4795 9.2534C42.377 8.63868 41.9052 8.15135 41.2941 8.02913L40.2164 7.81359C37.511 7.27252 34.7588 7 31.9999 7C29.241 7 26.4888 7.27252 23.7834 7.81359L22.7057 8.02913Z" fill="#F8AF20" stroke="#F8AF20" stroke-width="3" stroke-linejoin="round"/>
<path d="M22 15.5L23 9.5L24.0777 9.28446C26.6862 8.76276 29.3398 8.5 32 8.5V8.5C34.6602 8.5 37.3138 8.76276 39.9223 9.28446L41 9.5L42 15.5" stroke="#434D58" stroke-width="2"/>
<path d="M14 17.5V25.6115C14 26.8534 14.2892 28.0783 14.8446 29.1892L15 29.5L14.8446 29.8108C14.2892 30.9217 14 32.1466 14 33.3885V38.6115C14 39.8534 14.2892 41.0783 14.8446 42.1892L15 42.5L14.8446 42.8108C14.2892 43.9217 14 45.1466 14 46.3885V52.5316C14 53.1684 14.1483 53.7966 14.4331 54.3662V54.3662C14.7805 55.0611 15.4908 55.5 16.2677 55.5H46.8196C48.1217 55.5 49.2777 54.6668 49.6895 53.4315V53.4315C49.8952 52.8145 50 52.1685 50 51.5182V46.3885C50 45.1466 49.7108 43.9217 49.1554 42.8108L49 42.5L49.1554 42.1892C49.7108 41.0783 50 39.8534 50 38.6115V33.3885C50 32.1466 49.7108 30.9217 49.1554 29.8108L49 29.5L49.1554 29.1892C49.7108 28.0783 50 26.8534 50 25.6115V17.5" stroke="#434D58" stroke-width="2"/>
<path d="M14 50.5L8.82255 49.3495C6.69839 48.8774 5.34121 46.794 5.76795 44.6602L7 38.5L9 28.5L10.2728 22.1362C10.7185 19.9077 12.385 18.1223 14.5775 17.5243L22 15.5L32 21.5L42 15.5L49.4225 17.5243C51.615 18.1223 53.2815 19.9077 53.7272 22.1362L55 28.5L57 38.5L58.232 44.6602C58.6588 46.794 57.3016 48.8774 55.1774 49.3495L50 50.5" stroke="#434D58" stroke-width="2"/>
<path d="M23 9.5L32 13.5L41 9.5" stroke="#434D58" stroke-width="2"/>
<path d="M32 13.5V55.5" stroke="#434D58" stroke-width="3.5"/>
<path d="M9 28.5L14.625 29.75" stroke="#434D58" stroke-width="2"/>
<path d="M55 28.5L49.375 29.75" stroke="#434D58" stroke-width="2"/>
<path d="M15 29.5H49" stroke="#434D58" stroke-width="2"/>
<path d="M7 38.5L13.75 40" stroke="#434D58" stroke-width="2"/>
<path d="M57 38.5L50.25 40" stroke="#434D58" stroke-width="2"/>
<path d="M15 42.5H49" stroke="#434D58" stroke-width="2"/>
</svg>
