<svg width="24" height="25" viewBox="0 0 24 25" fill="none" xmlns="http://www.w3.org/2000/svg">
<path fill-rule="evenodd" clip-rule="evenodd" d="M12.4998 5.12891C8.16258 5.12891 4.64258 7.86319 4.64258 11.226C4.64258 13.3239 6.00187 15.1546 8.07615 16.2703L7.20401 19.4682C7.18756 19.5318 7.19094 19.5989 7.21372 19.6605C7.23649 19.7222 7.27757 19.7754 7.33143 19.813C7.3853 19.8506 7.44938 19.8709 7.51508 19.871C7.58078 19.8712 7.64496 19.8513 7.69901 19.8139L11.5176 17.276C11.8397 17.276 12.1698 17.3311 12.4998 17.3311C16.8369 17.3311 20.3569 14.5968 20.3569 11.226C20.3569 7.85534 16.8369 5.12891 12.4998 5.12891Z" fill="#323941"/>
</svg>
