<svg width="192" height="192" viewBox="0 0 24 24" fill="none" xmlns="http://www.w3.org/2000/svg">
<path fill-rule="evenodd" clip-rule="evenodd" d="M9.48996 4.65771C8.48504 3.63459 7.08586 3 5.53846 3C2.47965 3 0 5.47965 0 8.53846C0 11.5973 2.47965 14.0769 5.53846 14.0769C5.60005 14.0769 5.6614 14.0759 5.7225 14.0739C6.57661 18.2888 10.3024 21.4615 14.7692 21.4615C19.8672 21.4615 24 17.3288 24 12.2308C24 7.13276 19.8672 3 14.7692 3C12.806 3 10.986 3.61286 9.48996 4.65771ZM7.38462 8.53846C7.38462 9.55806 6.55806 10.3846 5.53846 10.3846C4.51886 10.3846 3.69231 9.55806 3.69231 8.53846C3.69231 7.51886 4.51886 6.69231 5.53846 6.69231C6.55806 6.69231 7.38462 7.51886 7.38462 8.53846ZM12.5175 9.97914C13.7611 8.73552 15.7774 8.73552 17.021 9.97914L18.9791 8.02099C16.6541 5.69593 12.8844 5.69593 10.5593 8.02099C8.23425 10.3461 8.23425 14.1157 10.5593 16.4408C12.8844 18.7659 16.6541 18.7659 18.9791 16.4408L17.021 14.4827C15.7774 15.7263 13.7611 15.7263 12.5175 14.4827C11.2738 13.239 11.2738 11.2228 12.5175 9.97914Z" fill="#323941" fill-opacity="0.87"/>
</svg>
