<svg width="40" height="40" viewBox="0 0 40 40" fill="none" xmlns="http://www.w3.org/2000/svg">
<rect width="40" height="40" rx="20" fill="#23ADFF"/>
<mask id="mask0_7780_193279" style="mask-type:alpha" maskUnits="userSpaceOnUse" x="8" y="8" width="24" height="24">
<rect x="8" y="8" width="24" height="24" fill="#D9D9D9"/>
</mask>
<g mask="url(#mask0_7780_193279)">
<path d="M20 30C17.7167 30 15.8125 29.2167 14.2875 27.65C12.7625 26.0833 12 24.1333 12 21.8C12 20.1333 12.6625 18.3208 13.9875 16.3625C15.3125 14.4042 17.3167 12.2833 20 10C22.6833 12.2833 24.6875 14.4042 26.0125 16.3625C27.3375 18.3208 28 20.1333 28 21.8C28 24.1333 27.2375 26.0833 25.7125 27.65C24.1875 29.2167 22.2833 30 20 30ZM20 28C21.7333 28 23.1667 27.4125 24.3 26.2375C25.4333 25.0625 26 23.5833 26 21.8C26 20.5833 25.4958 19.2083 24.4875 17.675C23.4792 16.1417 21.9833 14.4667 20 12.65C18.0167 14.4667 16.5208 16.1417 15.5125 17.675C14.5042 19.2083 14 20.5833 14 21.8C14 23.5833 14.5667 25.0625 15.7 26.2375C16.8333 27.4125 18.2667 28 20 28Z" fill="white"/>
</g>
<mask id="mask1_7780_193279" style="mask-type:alpha" maskUnits="userSpaceOnUse" x="14" y="12" width="12" height="16">
<path d="M24.3 26.2379C23.1667 27.4129 21.7333 28.0004 20 28.0004C18.2667 28.0004 16.8333 27.4129 15.7 26.2379C14.5667 25.0629 14 23.5837 14 21.8004C14 20.5837 14.5042 19.2087 15.5125 17.6754C16.5208 16.1421 18.0167 14.4671 20 12.6504C21.9833 14.4671 23.4792 16.1421 24.4875 17.6754C25.4958 19.2087 26 20.5837 26 21.8004C26 23.5837 25.4333 25.0629 24.3 26.2379Z" fill="#845BFF"/>
</mask>
<g mask="url(#mask1_7780_193279)">
<mask id="path-5-inside-1_7780_193279" fill="white">
<path d="M14 12.5H26V28H14V12.5Z"/>
</mask>
<path d="M26 20.25H14V35.75H26V20.25Z" fill="white" mask="url(#path-5-inside-1_7780_193279)"/>
</g>
</svg>
