<svg width="24" height="24" viewBox="0 0 24 24" fill="none" xmlns="http://www.w3.org/2000/svg">
<mask id="mask0_7616_75185" style="mask-type:alpha" maskUnits="userSpaceOnUse" x="0" y="0" width="24" height="24">
<rect width="24" height="24" fill="#D9D9D9"/>
</mask>
<g mask="url(#mask0_7616_75185)">
<path d="M12 22C9.71667 22 7.8125 21.2167 6.2875 19.65C4.7625 18.0833 4 16.1333 4 13.8C4 12.1333 4.6625 10.3208 5.9875 8.3625C7.3125 6.40417 9.31667 4.28333 12 2C14.6833 4.28333 16.6875 6.40417 18.0125 8.3625C19.3375 10.3208 20 12.1333 20 13.8C20 16.1333 19.2375 18.0833 17.7125 19.65C16.1875 21.2167 14.2833 22 12 22ZM12 20C13.7333 20 15.1667 19.4125 16.3 18.2375C17.4333 17.0625 18 15.5833 18 13.8C18 12.5833 17.4958 11.2083 16.4875 9.675C15.4792 8.14167 13.9833 6.46667 12 4.65C10.0167 6.46667 8.52083 8.14167 7.5125 9.675C6.50417 11.2083 6 12.5833 6 13.8C6 15.5833 6.56667 17.0625 7.7 18.2375C8.83333 19.4125 10.2667 20 12 20Z" fill="#23ADFF"/>
</g>
<mask id="mask1_7616_75185" style="mask-type:alpha" maskUnits="userSpaceOnUse" x="6" y="4" width="12" height="16">
<path d="M16.3 18.2375C15.1667 19.4125 13.7333 20 12 20C10.2667 20 8.83333 19.4125 7.7 18.2375C6.56667 17.0625 6 15.5834 6 13.8C6 12.5834 6.50417 11.2084 7.5125 9.67502C8.52083 8.14169 10.0167 6.46669 12 4.65002C13.9833 6.46669 15.4792 8.14169 16.4875 9.67502C17.4958 11.2084 18 12.5834 18 13.8C18 15.5834 17.4333 17.0625 16.3 18.2375Z" fill="#845BFF"/>
</mask>
<g mask="url(#mask1_7616_75185)">
<mask id="path-4-inside-1_7616_75185" fill="white">
<path d="M6 4.5H18V20H6V4.5Z"/>
</mask>
<path d="M18 13.8H6V26.2H18V13.8Z" fill="#23ADFF" mask="url(#path-4-inside-1_7616_75185)"/>
</g>
</svg>
