<svg width="20" height="20" viewBox="0 0 20 20" fill="none" xmlns="http://www.w3.org/2000/svg">
<path d="M5.96046e-08 20V2C5.96046e-08 1.45 0.191667 0.983332 0.575 0.599999C0.975 0.199999 1.45 -4.76837e-07 2 -4.76837e-07H18C18.55 -4.76837e-07 19.0167 0.199999 19.4 0.599999C19.8 0.983332 20 1.45 20 2V14C20 14.55 19.8 15.025 19.4 15.425C19.0167 15.8083 18.55 16 18 16H4L5.96046e-08 20ZM10 13C10.2833 13 10.5167 12.9083 10.7 12.725C10.9 12.525 11 12.2833 11 12C11 11.7167 10.9 11.4833 10.7 11.3C10.5167 11.1 10.2833 11 10 11C9.71667 11 9.475 11.1 9.275 11.3C9.09167 11.4833 9 11.7167 9 12C9 12.2833 9.09167 12.525 9.275 12.725C9.475 12.9083 9.71667 13 10 13ZM9 9H11V3H9V9Z" fill="black" fill-opacity="0.56"/>
</svg>
