<svg width="160" height="161" viewBox="0 0 160 161" fill="none" xmlns="http://www.w3.org/2000/svg">
<path d="M39.0607 3.43934C38.7794 3.15804 38.3978 3 38 3H26C25.6022 3 25.2206 3.15804 24.9393 3.43934L21.2331 7.14555L16.2087 8.40165C14.0647 8.93765 12.4498 10.7049 12.1086 12.8884L7.51798 42.2684C7.40111 43.0164 7.85996 43.7343 8.58792 43.9423L14.5 45.6315V60.5C14.5 61.3284 15.1716 62 16 62H48C48.8284 62 49.5 61.3284 49.5 60.5V45.6315L55.4121 43.9423C56.14 43.7343 56.5989 43.0164 56.482 42.2684L51.8914 12.8884C51.5502 10.7049 49.9353 8.93765 47.7913 8.40165L42.7669 7.14555L39.0607 3.43934Z" fill="#53616F" stroke="#53616F" stroke-width="3" stroke-linejoin="round"/>
<path d="M16 10.5V60.5H48V10.5" stroke="#323941" stroke-width="2"/>
<path d="M48 44.5L55 42.5L50.4094 13.1199C50.1612 11.5319 48.9867 10.2467 47.4275 9.85686L42 8.5L38 4.5H26L22 8.5L16.5725 9.85686C15.0133 10.2467 13.8388 11.5319 13.5906 13.1199L9 42.5L16 44.5" stroke="#323941" stroke-width="2"/>
<path d="M26 4.5L32 12.5L27 16.5L22 8.5" stroke="#323941" stroke-width="2"/>
<path d="M38 4.5L32 12.5L37 16.5L42 8.5" stroke="#323941" stroke-width="2"/>
<path d="M55 41.5L48 43.5" stroke="#323941" stroke-width="2"/>
<path d="M9 41.5L16 43.5" stroke="#323941" stroke-width="2"/>
<path d="M32 13.5L32 60.5" stroke="#323941" stroke-width="3.5"/>
<path d="M16 48.5L22 36.5" stroke="#323941" stroke-width="2"/>
<path d="M48 48.5L42 36.5" stroke="#323941" stroke-width="2"/>
<path d="M101.997 23.8851C101.691 24.1603 101.511 24.5492 101.501 24.9606C101.49 25.3719 101.648 25.7697 101.939 26.0607L110.5 34.6213V52C110.5 52.8284 111.172 53.5 112 53.5H144C144.828 53.5 145.5 52.8284 145.5 52V34.6213L154.061 26.0607C154.352 25.7697 154.51 25.3719 154.499 24.9606C154.489 24.5492 154.309 24.1603 154.003 23.8851L144.003 14.8851C143.864 14.7596 143.702 14.6614 143.527 14.5955L135.527 11.5955C135.057 11.4195 134.531 11.4896 134.124 11.7823C132.401 13.0222 130.288 13.7521 128 13.7521C125.712 13.7521 123.599 13.0222 121.876 11.7823C121.469 11.4896 120.943 11.4195 120.473 11.5955L112.473 14.5955C112.298 14.6614 112.136 14.7596 111.997 14.8851L101.997 23.8851Z" fill="#FB9FE1" stroke="#FB9FE1" stroke-width="3" stroke-linejoin="round"/>
<path d="M112 23V52H144V23" stroke="#434D58" stroke-width="2"/>
<path d="M112 34L103 25L113 16L121 13C122.97 14.4173 125.388 15.2521 128 15.2521C130.612 15.2521 133.03 14.4173 135 13L143 16L153 25L144 34" stroke="#434D58" stroke-width="2"/>
<path d="M120 13.5C122.228 15.3837 124.998 16.5 128 16.5C131.002 16.5 133.772 15.3837 136 13.5" stroke="#434D58" stroke-width="3"/>
<path d="M52.4959 154.889C52.5567 155.71 51.9448 156.426 51.1246 156.495L39.1246 157.495C38.3536 157.559 37.6603 157.026 37.5236 156.265L32 125.491L26.4764 156.265C26.3397 157.026 25.6464 157.559 24.8754 157.495L12.8754 156.495C12.0552 156.426 11.4433 155.71 11.5041 154.889L15.5041 100.889C15.5621 100.106 16.2146 99.5 17 99.5H47C47.7854 99.5 48.4379 100.106 48.4959 100.889L52.4959 154.889Z" fill="#FFEF9B" stroke="#FFEF9B" stroke-width="3" stroke-linejoin="round"/>
<path d="M51 155L47 101H17L13 155L25 156L32 117L39 156L51 155Z" stroke="#434D58" stroke-width="2"/>
<path d="M32 101V117" stroke="#434D58" stroke-width="2"/>
<path d="M28 101V114C28 115.657 29.3431 117 31 117H32" stroke="#434D58" stroke-width="2"/>
<path d="M16 113C18.3832 111.428 20.4276 109.383 22 107V101" stroke="#434D58" stroke-width="2"/>
<path d="M48 113C45.6168 111.428 43.5724 109.383 42 107V101" stroke="#434D58" stroke-width="2"/>
<path d="M16 106L48 106" stroke="#434D58" stroke-width="2"/>
<path d="M51 154L39 155M13 154L25 155" stroke="#434D58" stroke-width="2"/>
<path d="M148.496 154.889C148.556 155.696 147.964 156.405 147.16 156.491L133.16 157.991C132.347 158.079 131.615 157.499 131.512 156.688L128 128.945L124.488 156.688C124.385 157.499 123.653 158.079 122.84 157.991L108.84 156.491C108.036 156.405 107.444 155.696 107.504 154.889L111.504 100.889C111.562 100.106 112.215 99.5 113 99.5H143C143.785 99.5 144.438 100.106 144.496 100.889L148.496 154.889Z" fill="#2160A9" stroke="#2160A9" stroke-width="3" stroke-linejoin="round"/>
<path d="M147 155L143 101H113L109 155L123 156.5L128 117L133 156.5L147 155Z" stroke="#323941" stroke-width="2"/>
<path d="M128 101V117" stroke="#323941" stroke-width="2"/>
<path d="M124 101.5V114.5C124 116.157 125.343 117.5 127 117.5H128" stroke="#323941" stroke-width="2" stroke-dasharray="4 4"/>
<path d="M112 113C114.383 111.428 116.428 109.383 118 107V101" stroke="#323941" stroke-width="2"/>
<path d="M144 113C141.617 111.428 139.572 109.383 138 107V101" stroke="#323941" stroke-width="2"/>
<path d="M112 106L144 106" stroke="#323941" stroke-width="2"/>
<path d="M147 151L133 152.5M109 151L123 152.5" stroke="#323941" stroke-width="2"/>
<path d="M113 114.5L110 155.5" stroke="#323941" stroke-width="2" stroke-dasharray="4 4"/>
<path d="M113 114.5L113.25 111.083" stroke="#323941" stroke-width="2"/>
<path d="M143 114.5L146 155.5" stroke="#323941" stroke-width="2" stroke-dasharray="4 4"/>
<path d="M143 114.5L142.75 111.083" stroke="#323941" stroke-width="2"/>
</svg>
