<svg width="17" height="16" viewBox="0 0 17 16" fill="none" xmlns="http://www.w3.org/2000/svg">
<path d="M8.5 8C7.4 8 6.45833 7.60833 5.675 6.825C4.89167 6.04167 4.5 5.1 4.5 4C4.5 2.9 4.89167 1.95833 5.675 1.175C6.45833 0.391666 7.4 -9.53674e-07 8.5 -9.53674e-07C9.6 -9.53674e-07 10.5417 0.391666 11.325 1.175C12.1083 1.95833 12.5 2.9 12.5 4C12.5 5.1 12.1083 6.04167 11.325 6.825C10.5417 7.60833 9.6 8 8.5 8ZM0.5 16V13.2C0.5 12.6333 0.641667 12.1167 0.925 11.65C1.225 11.1667 1.61667 10.8 2.1 10.55C3.13333 10.0333 4.18333 9.65 5.25 9.4C6.31667 9.13333 7.4 9 8.5 9C9.6 9 10.6833 9.13333 11.75 9.4C12.8167 9.65 13.8667 10.0333 14.9 10.55C15.3833 10.8 15.7667 11.1667 16.05 11.65C16.35 12.1167 16.5 12.6333 16.5 13.2V16H0.5Z" fill="black" fill-opacity="0.56"/>
</svg>
