<svg width="17" height="16" viewBox="0 0 17 16" fill="none" xmlns="http://www.w3.org/2000/svg">
<path d="M8.5 8C7.4 8 6.45833 7.60833 5.675 6.825C4.89167 6.04167 4.5 5.1 4.5 4C4.5 2.9 4.89167 1.95833 5.675 1.175C6.45833 0.391666 7.4 -9.53674e-07 8.5 -9.53674e-07C9.6 -9.53674e-07 10.5417 0.391666 11.325 1.175C12.1083 1.95833 12.5 2.9 12.5 4C12.5 5.1 12.1083 6.04167 11.325 6.825C10.5417 7.60833 9.6 8 8.5 8ZM0.5 16V13.2C0.5 12.6333 0.641667 12.1167 0.925 11.65C1.225 11.1667 1.61667 10.8 2.1 10.55C3.13333 10.0333 4.18333 9.65 5.25 9.4C6.31667 9.13333 7.4 9 8.5 9C9.6 9 10.6833 9.13333 11.75 9.4C12.8167 9.65 13.8667 10.0333 14.9 10.55C15.3833 10.8 15.7667 11.1667 16.05 11.65C16.35 12.1167 16.5 12.6333 16.5 13.2V16H0.5ZM2.5 14H14.5V13.2C14.5 13.0167 14.45 12.85 14.35 12.7C14.2667 12.55 14.15 12.4333 14 12.35C13.1 11.9 12.1917 11.5667 11.275 11.35C10.3583 11.1167 9.43333 11 8.5 11C7.56667 11 6.64167 11.1167 5.725 11.35C4.80833 11.5667 3.9 11.9 3 12.35C2.85 12.4333 2.725 12.55 2.625 12.7C2.54167 12.85 2.5 13.0167 2.5 13.2V14ZM8.5 6C9.05 6 9.51667 5.80833 9.9 5.425C10.3 5.025 10.5 4.55 10.5 4C10.5 3.45 10.3 2.98333 9.9 2.6C9.51667 2.2 9.05 2 8.5 2C7.95 2 7.475 2.2 7.075 2.6C6.69167 2.98333 6.5 3.45 6.5 4C6.5 4.55 6.69167 5.025 7.075 5.425C7.475 5.80833 7.95 6 8.5 6Z" fill="current"/>
</svg>
