<svg width="24" height="24" viewBox="0 0 24 24" fill="none" xmlns="http://www.w3.org/2000/svg">
<path d="M16.9685 21.9185C16.7185 22.0519 16.4644 22.0727 16.206 21.981C15.9477 21.8894 15.7519 21.7185 15.6185 21.4685L14.1185 18.4685C13.9852 18.2185 13.9644 17.9644 14.056 17.706C14.1477 17.4477 14.3185 17.2519 14.5685 17.1185C14.8185 16.9852 15.0727 16.9644 15.331 17.056C15.5894 17.1477 15.7852 17.3185 15.9185 17.5685L17.4185 20.5685C17.5519 20.8185 17.5727 21.0727 17.481 21.331C17.3894 21.5894 17.2185 21.7852 16.9685 21.9185ZM10.9685 21.9185C10.7185 22.0519 10.4644 22.0727 10.206 21.981C9.94769 21.8894 9.75185 21.7185 9.61852 21.4685L8.11852 18.4685C7.98519 18.2185 7.96435 17.9644 8.05602 17.706C8.14769 17.4477 8.31852 17.2519 8.56852 17.1185C8.81852 16.9852 9.07269 16.9644 9.33102 17.056C9.58935 17.1477 9.78519 17.3185 9.91852 17.5685L11.4185 20.5685C11.5519 20.8185 11.5727 21.0727 11.481 21.331C11.3894 21.5894 11.2185 21.7852 10.9685 21.9185Z" fill="#80C3FF"/>
<path d="M3.6125 14.3875C4.6875 15.4625 5.98333 16 7.5 16H17.5C18.75 16 19.8125 15.5625 20.6875 14.6875C21.5625 13.8125 22 12.75 22 11.5C22 10.3167 21.6083 9.3 20.825 8.45C20.0417 7.6 19.075 7.125 17.925 7.025C17.6917 5.59167 17.0208 4.39583 15.9125 3.4375C14.8042 2.47917 13.5 2 12 2C10.9 2 9.8875 2.27083 8.9625 2.8125C8.0375 3.35417 7.30833 4.1 6.775 5.05C5.425 5.23333 4.29167 5.84167 3.375 6.875C2.45833 7.90833 2 9.11667 2 10.5C2 12.0167 2.5375 13.3125 3.6125 14.3875Z" fill="#CED5DF"/>
</svg>
