<svg width="24" height="24" viewBox="0 0 24 24" fill="none" xmlns="http://www.w3.org/2000/svg">
<path d="M19.95 22.9C19.7 23.0333 19.4458 23.0542 19.1875 22.9625C18.9292 22.8708 18.7333 22.7 18.6 22.45L17.1 19.45C16.9667 19.2 16.9458 18.9458 17.0375 18.6875C17.1292 18.4292 17.3 18.2333 17.55 18.1C17.8 17.9667 18.0542 17.9458 18.3125 18.0375C18.5708 18.1292 18.7667 18.3 18.9 18.55L20.4 21.55C20.5333 21.8 20.5542 22.0542 20.4625 22.3125C20.3708 22.5708 20.2 22.7667 19.95 22.9ZM7.94999 21.4C7.69999 21.5333 7.44583 21.5516 7.18749 21.46C6.92916 21.3683 6.73333 21.2 6.59999 20.95L5.09999 17.95C4.96666 17.7 4.94583 17.4483 5.03749 17.19C5.12916 16.9316 5.29999 16.7333 5.54999 16.6C5.79999 16.4666 6.05416 16.4483 6.31249 16.54C6.57083 16.6316 6.76666 16.8 6.89999 17.05L8.39999 20.05C8.53333 20.3 8.55416 20.5516 8.46249 20.81C8.37083 21.0683 8.19999 21.2666 7.94999 21.4Z" fill="#80C3FF"/>
<path d="M11.69 22.9625C11.9483 23.0542 12.2 23.0333 12.45 22.9C12.7 22.7667 12.8683 22.5708 12.96 22.3125C13.0516 22.0542 13.0333 21.8 12.9 21.55L11.4 18.55C11.2666 18.3 11.0683 18.1292 10.81 18.0375C10.5516 17.9458 10.3 17.9667 10.05 18.1C9.79997 18.2333 9.63164 18.4292 9.53997 18.6875C9.4483 18.9458 9.46664 19.2 9.59997 19.45L11.1 22.45C11.2333 22.7 11.4316 22.8708 11.69 22.9625Z" fill="#80C3FF"/>
<path d="M15.1875 21.46C15.4458 21.5517 15.7 21.5333 15.95 21.4C16.2 21.2667 16.3708 21.0683 16.4625 20.81C16.5542 20.5517 16.5333 20.3 16.4 20.05L14.9 17.05C14.7667 16.8 14.5708 16.6317 14.3125 16.54C14.0542 16.4483 13.8 16.4666 13.55 16.6C13.3 16.7333 13.1292 16.9317 13.0375 17.19C12.9458 17.4483 12.9667 17.7 13.1 17.95L14.6 20.95C14.7333 21.2 14.9292 21.3683 15.1875 21.46Z" fill="#80C3FF"/>
<path d="M3.6125 14.3875C4.6875 15.4625 5.98333 16 7.5 16H17.5C18.75 16 19.8125 15.5625 20.6875 14.6875C21.5625 13.8125 22 12.75 22 11.5C22 10.3167 21.6083 9.3 20.825 8.45C20.0417 7.6 19.075 7.125 17.925 7.025C17.6917 5.59167 17.0208 4.39583 15.9125 3.4375C14.8042 2.47917 13.5 2 12 2C10.9 2 9.8875 2.27083 8.9625 2.8125C8.0375 3.35417 7.30833 4.1 6.775 5.05C5.425 5.23333 4.29167 5.84167 3.375 6.875C2.45833 7.90833 2 9.11667 2 10.5C2 12.0167 2.5375 13.3125 3.6125 14.3875Z" fill="#95A7BA"/>
</svg>
