<svg width="24" height="24" viewBox="0 0 24 24" fill="none" xmlns="http://www.w3.org/2000/svg">
<path d="M3.6125 14.3875C4.6875 15.4625 5.98333 16 7.5 16H17.5C18.75 16 19.8125 15.5625 20.6875 14.6875C21.5625 13.8125 22 12.75 22 11.5C22 10.3167 21.6083 9.3 20.825 8.45C20.0417 7.6 19.075 7.125 17.925 7.025C17.6917 5.59167 17.0208 4.39583 15.9125 3.4375C14.8042 2.47917 13.5 2 12 2C10.9 2 9.8875 2.27083 8.9625 2.8125C8.0375 3.35417 7.30833 4.1 6.775 5.05C5.425 5.23333 4.29167 5.84167 3.375 6.875C2.45833 7.90833 2 9.11667 2 10.5C2 12.0167 2.5375 13.3125 3.6125 14.3875Z" fill="#95A7BA"/>
<path d="M5.6125 19.6375C5.85417 19.8792 6.15 20 6.5 20C6.85 20 7.14583 19.8792 7.3875 19.6375C7.62917 19.3958 7.75 19.1 7.75 18.75C7.75 18.4 7.62917 18.1042 7.3875 17.8625C7.14583 17.6208 6.85 17.5 6.5 17.5C6.15 17.5 5.85417 17.6208 5.6125 17.8625C5.37083 18.1042 5.25 18.4 5.25 18.75C5.25 19.1 5.37083 19.3958 5.6125 19.6375Z" fill="#80C3FF"/>
<path d="M8.6125 22.6375C8.85417 22.8792 9.15 23 9.5 23C9.85 23 10.1458 22.8792 10.3875 22.6375C10.6292 22.3958 10.75 22.1 10.75 21.75C10.75 21.4 10.6292 21.1042 10.3875 20.8625C10.1458 20.6208 9.85 20.5 9.5 20.5C9.15 20.5 8.85417 20.6208 8.6125 20.8625C8.37083 21.1042 8.25 21.4 8.25 21.75C8.25 22.1 8.37083 22.3958 8.6125 22.6375Z" fill="#80C3FF"/>
<path d="M11.6125 19.6375C11.8542 19.8792 12.15 20 12.5 20C12.85 20 13.1458 19.8792 13.3875 19.6375C13.6292 19.3958 13.75 19.1 13.75 18.75C13.75 18.4 13.6292 18.1042 13.3875 17.8625C13.1458 17.6208 12.85 17.5 12.5 17.5C12.15 17.5 11.8542 17.6208 11.6125 17.8625C11.3708 18.1042 11.25 18.4 11.25 18.75C11.25 19.1 11.3708 19.3958 11.6125 19.6375Z" fill="#80C3FF"/>
<path d="M17.6125 19.6375C17.8542 19.8792 18.15 20 18.5 20C18.85 20 19.1458 19.8792 19.3875 19.6375C19.6292 19.3958 19.75 19.1 19.75 18.75C19.75 18.4 19.6292 18.1042 19.3875 17.8625C19.1458 17.6208 18.85 17.5 18.5 17.5C18.15 17.5 17.8542 17.6208 17.6125 17.8625C17.3708 18.1042 17.25 18.4 17.25 18.75C17.25 19.1 17.3708 19.3958 17.6125 19.6375Z" fill="#80C3FF"/>
<path d="M14.6125 22.6375C14.8542 22.8792 15.15 23 15.5 23C15.85 23 16.1458 22.8792 16.3875 22.6375C16.6292 22.3958 16.75 22.1 16.75 21.75C16.75 21.4 16.6292 21.1042 16.3875 20.8625C16.1458 20.6208 15.85 20.5 15.5 20.5C15.15 20.5 14.8542 20.6208 14.6125 20.8625C14.3708 21.1042 14.25 21.4 14.25 21.75C14.25 22.1 14.3708 22.3958 14.6125 22.6375Z" fill="#80C3FF"/>
</svg>
