<svg width="40" height="40" viewBox="0 0 40 40" fill="none" xmlns="http://www.w3.org/2000/svg">
<rect width="40" height="40" rx="20" fill="#FF7E75"/>
<path fill-rule="evenodd" clip-rule="evenodd" d="M20 10C18.3431 10 17 11.3431 17 13V20.9996C15.7856 21.9118 15 23.3642 15 25C15 27.7614 17.2386 30 20 30C22.7614 30 25 27.7614 25 25C25 23.3642 24.2144 21.9118 23 20.9996V13C23 11.3431 21.6569 10 20 10Z" fill="white"/>
<path d="M20 14H22V15H20V14Z" fill="#53616F"/>
<path d="M20 17H22V18H20V17Z" fill="#53616F"/>
<path d="M22 20H20V21H22V20Z" fill="#53616F"/>
</svg>
