<svg width="64" height="64" viewBox="0 0 64 64" fill="none" xmlns="http://www.w3.org/2000/svg">
<path d="M49.2433 49.7353L52.708 48.8692C55.5314 48.1633 57.3162 45.3802 56.7799 42.5198L52.1669 17.9175C51.6374 15.0934 49.5409 12.82 46.7688 12.064L39.3947 10.0529C38.9582 9.93382 38.4913 10.0181 38.124 10.2823C36.4005 11.5222 34.2877 12.2521 32 12.2521C29.7123 12.2521 27.5995 11.5222 25.876 10.2823C25.5087 10.0181 25.0418 9.93382 24.6053 10.0529L17.2312 12.064C14.4591 12.82 12.3626 15.0934 11.8331 17.9175L7.22015 42.5198C6.68382 45.3802 8.46863 48.1633 11.292 48.8692L14.7567 49.7353C15.2596 52.1617 17.4099 54 20.0027 54H43.9973C46.5901 54 48.7404 52.1617 49.2433 49.7353Z" fill="#F8AF20" stroke="#F8AF20" stroke-width="3" stroke-linejoin="round"/>
<path d="M16 14.5V48.5C16 50.7091 17.7909 52.5 20 52.5H44C46.2091 52.5 48 50.7091 48 48.5V14.5" stroke="#434D58" stroke-width="2"/>
<path d="M16 48.5L11.6558 47.414C9.60244 46.9006 8.3044 44.8765 8.69446 42.7962L13.3074 18.194C13.731 15.9346 15.4082 14.1159 17.6259 13.5111L25 11.5C26.9702 12.9173 29.3876 13.7521 32 13.7521C34.6124 13.7521 37.0298 12.9173 39 11.5L46.3741 13.5111C48.5918 14.1159 50.269 15.9346 50.6926 18.194L55.3055 42.7962C55.6956 44.8765 54.3976 46.9006 52.3442 47.414L48 48.5" stroke="#434D58" stroke-width="2"/>
<path d="M8 42.5L16 44.5" stroke="#434D58" stroke-width="2"/>
<path d="M56 42.5L48 44.5" stroke="#434D58" stroke-width="2"/>
<path d="M16 48.5H48" stroke="#434D58" stroke-width="2"/>
<path d="M43 13.1191C40.1327 15.8346 36.2608 17.5001 32 17.5001C27.7392 17.5001 23.8673 15.8346 21 13.1191" stroke="#434D58" stroke-width="2" stroke-linecap="square"/>
<path d="M32 21.5V25.5" stroke="#434D58" stroke-width="2"/>
<path d="M32 33.5V37.5" stroke="#434D58" stroke-width="2"/>
<path d="M32 45.5V47.5" stroke="#434D58" stroke-width="2"/>
<path d="M40 21.5V25.5" stroke="#434D58" stroke-width="2"/>
<path d="M40 33.5V37.5" stroke="#434D58" stroke-width="2"/>
<path d="M40 45.5V47.5" stroke="#434D58" stroke-width="2"/>
<path d="M24 21.5V25.5" stroke="#434D58" stroke-width="2"/>
<path d="M24 33.5V37.5" stroke="#434D58" stroke-width="2"/>
<path d="M24 45.5V47.5" stroke="#434D58" stroke-width="2"/>
<path d="M28 27.5V31.5" stroke="#434D58" stroke-width="2"/>
<path d="M36 27.5V31.5" stroke="#434D58" stroke-width="2"/>
<path d="M28 39.5V43.5" stroke="#434D58" stroke-width="2"/>
<path d="M20 27.5V31.5" stroke="#434D58" stroke-width="2"/>
<path d="M20 39.5V43.5" stroke="#434D58" stroke-width="2"/>
<path d="M36 39.5V43.5" stroke="#434D58" stroke-width="2"/>
<path d="M44 27.5V31.5" stroke="#434D58" stroke-width="2"/>
<path d="M28 17.5V19.5" stroke="#434D58" stroke-width="2"/>
<path d="M36 17.5V19.5" stroke="#434D58" stroke-width="2"/>
<path d="M20 15.5V19.5" stroke="#434D58" stroke-width="2"/>
<path d="M44 15.5V19.5" stroke="#434D58" stroke-width="2"/>
<path d="M44 39.5V43.5" stroke="#434D58" stroke-width="2"/>
</svg>
