<svg width="64" height="64" viewBox="0 0 64 64" fill="none" xmlns="http://www.w3.org/2000/svg">
<path d="M38.4998 50.5005V47.4271L41.6706 45.8416C42.1788 45.5876 42.4998 45.0682 42.4998 44.5V24.961L45.8241 21.138C47.6387 19.0513 47.6217 15.9418 45.7845 13.875L41.911 9.51727C41.56 9.12236 41.1713 8.76901 40.7527 8.4608C39.475 7.51992 37.9193 7 36.3054 7H27.6942C25.5519 7 23.5119 7.91611 22.0886 9.51727L18.0177 14.0971C16.3005 16.0289 16.1602 18.8957 17.6804 20.9861L22.9292 28.2032L21.834 29.5562C21.4921 29.9785 21.4053 30.5526 21.6071 31.0571L25.4998 40.7889V55.5005C25.4998 56.0204 25.769 56.5032 26.2112 56.7765C26.6535 57.0498 27.2057 57.0746 27.6706 56.8421L37.6706 51.8421C38.1788 51.588 38.4998 51.0686 38.4998 50.5005Z" fill="#10D69E" stroke="#10D69E" stroke-width="3" stroke-linejoin="round"/>
<path d="M25 28.5L18.8937 20.1038C17.788 18.5836 17.8901 16.4986 19.139 15.0937L23.2099 10.5138C24.3485 9.23289 25.9806 8.5 27.6944 8.5H36.3056C38.0194 8.5 39.6515 9.23289 40.7901 10.5138L44.6636 14.8716C45.9997 16.3747 46.0121 18.6361 44.6924 20.1537L27 40.5L23 30.5L40 9.5" stroke="#434D58" stroke-width="2"/>
<path d="M27 40.5003V55.5003L37 50.5003V29" stroke="#434D58" stroke-width="2"/>
<path d="M41 24.5V44.5L37 46.5" stroke="#434D58" stroke-width="2"/>
<path d="M32 19.5L24 9.5" stroke="#434D58" stroke-width="2"/>
<path d="M27 49.5L37 44.5" stroke="#434D58" stroke-width="2"/>
<path d="M41 38.5L37 40.5" stroke="#434D58" stroke-width="2"/>
</svg>
