<svg width="188" height="156" viewBox="0 0 188 156" fill="none" xmlns="http://www.w3.org/2000/svg">
<g filter="url(#filter0_ddd_7620_10627)">
<path d="M50.3652 23.1034C50.0882 23.1961 49.8348 23.3484 49.6229 23.5496L18.6229 52.9836C18.2344 53.3524 18.0102 53.8617 18.0003 54.3973C17.9905 54.9329 18.196 55.45 18.5706 55.8329L44 81.8158V133C44 134.105 44.8954 135 46 135H142C143.105 135 144 134.105 144 133V81.8158L169.429 55.8329C169.804 55.45 170.009 54.9329 170 54.3973C169.99 53.8617 169.766 53.3524 169.377 52.9836L138.377 23.5496C138.165 23.3484 137.912 23.1961 137.635 23.1034L113.732 15.1034C113.046 14.874 112.29 15.0323 111.754 15.5175C107.038 19.7884 100.819 22.3795 94 22.3795C87.1814 22.3795 80.9622 19.7884 76.2457 15.5175C75.7099 15.0323 74.9539 14.874 74.2685 15.1034L50.3652 23.1034Z" fill="white" stroke="white" stroke-width="4" stroke-linejoin="round"/>
<path d="M46 45V133H94H142V45" stroke="#627384" stroke-width="3"/>
<path d="M46 81L20 54.434L51 25L74.9032 17C79.9711 21.5891 86.6635 24.3795 94 24.3795C101.337 24.3795 108.029 21.5891 113.097 17L137 25L168 54.434L142 81" stroke="#627384" stroke-width="3"/>
<path d="M68 21C74.8998 27.2187 84.0114 31 94 31C103.989 31 113.1 27.2187 120 21" stroke="#627384" stroke-width="3" stroke-linecap="square"/>
</g>
<defs>
<filter id="filter0_ddd_7620_10627" x="0" y="0" width="188" height="156" filterUnits="userSpaceOnUse" color-interpolation-filters="sRGB">
<feFlood flood-opacity="0" result="BackgroundImageFix"/>
<feColorMatrix in="SourceAlpha" type="matrix" values="0 0 0 0 0 0 0 0 0 0 0 0 0 0 0 0 0 0 127 0" result="hardAlpha"/>
<feMorphology radius="3" operator="erode" in="SourceAlpha" result="effect1_dropShadow_7620_10627"/>
<feOffset dy="5"/>
<feGaussianBlur stdDeviation="2.5"/>
<feComposite in2="hardAlpha" operator="out"/>
<feColorMatrix type="matrix" values="0 0 0 0 0 0 0 0 0 0 0 0 0 0 0 0 0 0 0.2 0"/>
<feBlend mode="normal" in2="BackgroundImageFix" result="effect1_dropShadow_7620_10627"/>
<feColorMatrix in="SourceAlpha" type="matrix" values="0 0 0 0 0 0 0 0 0 0 0 0 0 0 0 0 0 0 127 0" result="hardAlpha"/>
<feMorphology radius="1" operator="dilate" in="SourceAlpha" result="effect2_dropShadow_7620_10627"/>
<feOffset dy="8"/>
<feGaussianBlur stdDeviation="5"/>
<feComposite in2="hardAlpha" operator="out"/>
<feColorMatrix type="matrix" values="0 0 0 0 0 0 0 0 0 0 0 0 0 0 0 0 0 0 0.14 0"/>
<feBlend mode="normal" in2="effect1_dropShadow_7620_10627" result="effect2_dropShadow_7620_10627"/>
<feColorMatrix in="SourceAlpha" type="matrix" values="0 0 0 0 0 0 0 0 0 0 0 0 0 0 0 0 0 0 127 0" result="hardAlpha"/>
<feMorphology radius="2" operator="dilate" in="SourceAlpha" result="effect3_dropShadow_7620_10627"/>
<feOffset dy="3"/>
<feGaussianBlur stdDeviation="7"/>
<feComposite in2="hardAlpha" operator="out"/>
<feColorMatrix type="matrix" values="0 0 0 0 0 0 0 0 0 0 0 0 0 0 0 0 0 0 0.12 0"/>
<feBlend mode="normal" in2="effect2_dropShadow_7620_10627" result="effect3_dropShadow_7620_10627"/>
<feBlend mode="normal" in="SourceGraphic" in2="effect3_dropShadow_7620_10627" result="shape"/>
</filter>
</defs>
</svg>
