<svg width="64" height="64" viewBox="0 0 64 64" fill="none" xmlns="http://www.w3.org/2000/svg">
<path d="M14.8536 39.9749L24.0251 49.1464C25.392 50.5133 27.608 50.5133 28.9749 49.1464L48.1464 29.9749C49.5133 28.608 49.5133 26.392 48.1464 25.0251L38.9749 15.8536C37.608 14.4867 35.392 14.4867 34.0251 15.8536L14.8536 35.0251C13.4867 36.392 13.4867 38.608 14.8536 39.9749Z" fill="#10D69E" stroke="#10D69E" stroke-width="3" stroke-linejoin="round"/>
<path d="M42.4393 16.4393C41.8536 17.0251 41.8536 17.9749 42.4393 18.5607L45.4393 21.5607C46.0251 22.1464 46.9749 22.1464 47.5607 21.5607L50.5607 18.5607C51.1464 17.9749 51.1464 17.0251 50.5607 16.4393L47.5607 13.4393C46.9749 12.8536 46.0251 12.8536 45.4393 13.4393L42.4393 16.4393Z" fill="#10D69E" stroke="#10D69E" stroke-width="3" stroke-linejoin="round"/>
<path d="M25.0858 48.0858L15.9142 38.9142C15.1332 38.1332 15.1332 36.8668 15.9142 36.0858L35.0858 16.9142C35.8668 16.1332 37.1332 16.1332 37.9142 16.9142L47.0858 26.0858C47.8668 26.8668 47.8668 28.1332 47.0858 28.9142L27.9142 48.0858C27.1332 48.8668 25.8668 48.8668 25.0858 48.0858Z" stroke="#434D58" stroke-width="2"/>
<path d="M46.5 20.5L43.5 17.5L46.5 14.5L49.5 17.5L46.5 20.5Z" stroke="#434D58" stroke-width="2"/>
<path d="M25 48L24.9142 47.9142C24.1332 47.1332 24.1332 45.8668 24.9142 45.0858L31.5 38.5M47.5 26.5H45.1569C44.096 26.5 43.0786 26.9214 42.3284 27.6716L36.5 33.5" stroke="#434D58" stroke-width="2"/>
<path d="M25 48L18.9142 41.9142C18.1332 41.1332 18.1332 39.8668 18.9142 39.0858L25.5 32.5M47 26L42.3284 21.3284C40.7663 19.7663 38.2337 19.7663 36.6716 21.3284L30.5 27.5" stroke="#434D58" stroke-width="2"/>
<path d="M22.5 29.5L34.5 41.5" stroke="#434D58" stroke-width="2"/>
<path d="M42.5 21.5L44.5 19.5" stroke="#434D58" stroke-width="3.5"/>
<path d="M27.5 24.5L39.5 36.5" stroke="#434D58" stroke-width="2"/>
</svg>
