<svg width="64" height="64" viewBox="0 0 64 64" fill="none" xmlns="http://www.w3.org/2000/svg">
<path d="M52.4959 58.3892C52.5557 59.1963 51.9645 59.9052 51.1598 59.9915L37.1598 61.4915C36.3472 61.5785 35.6145 60.9991 35.5119 60.1884L32 32.4446L28.4881 60.1884C28.3855 60.9991 27.6528 61.5785 26.8402 61.4915L12.8402 59.9915C12.0355 59.9052 11.4443 59.1963 11.5041 58.3892L15.5041 4.38919C15.5621 3.6059 16.2146 3 17 3H47C47.7854 3 48.4379 3.6059 48.4959 4.38919L52.4959 58.3892Z" fill="#80C3FF" stroke="#80C3FF" stroke-width="3" stroke-linejoin="round"/>
<path d="M51 58.5L47 4.5H17L13 58.5L27 60L32 20.5L37 60L51 58.5Z" stroke="#434D58" stroke-width="2"/>
<path d="M32 4.5V20.5" stroke="#434D58" stroke-width="2"/>
<path d="M28 5V18C28 19.6569 29.3431 21 31 21H32" stroke="#434D58" stroke-width="2" stroke-dasharray="4 4"/>
<path d="M16 16.5C18.3832 14.9276 20.4276 12.8832 22 10.5V4.5" stroke="#434D58" stroke-width="2"/>
<path d="M48 16.5C45.6168 14.9276 43.5724 12.8832 42 10.5V4.5" stroke="#434D58" stroke-width="2"/>
<path d="M16 9.5L48 9.5" stroke="#434D58" stroke-width="2"/>
<path d="M51 54.5L37 56M13 54.5L27 56" stroke="#434D58" stroke-width="2"/>
<path d="M17 18L14 59" stroke="#434D58" stroke-width="2" stroke-dasharray="4 4"/>
<path d="M17 18L17.25 14.5833" stroke="#434D58" stroke-width="2"/>
<path d="M47 18L50 59" stroke="#434D58" stroke-width="2" stroke-dasharray="4 4"/>
<path d="M47 18L46.75 14.5833" stroke="#434D58" stroke-width="2"/>
</svg>
