<svg width="64" height="64" viewBox="0 0 64 64" fill="none" xmlns="http://www.w3.org/2000/svg">
<path d="M39.0607 2.93934C38.7794 2.65804 38.3978 2.5 38 2.5H26C25.6022 2.5 25.2206 2.65804 24.9393 2.93934L21.2331 6.64555L16.2087 7.90165C14.0647 8.43765 12.4498 10.2049 12.1086 12.3884L7.51798 41.7684C7.40111 42.5164 7.85996 43.2343 8.58792 43.4423L14.5 45.1315V60C14.5 60.8284 15.1716 61.5 16 61.5H48C48.8284 61.5 49.5 60.8284 49.5 60V45.1315L55.4121 43.4423C56.14 43.2343 56.5989 42.5164 56.482 41.7684L51.8914 12.3884C51.5502 10.2049 49.9353 8.43765 47.7913 7.90165L42.7669 6.64555L39.0607 2.93934Z" fill="#F8AF20" stroke="#F8AF20" stroke-width="3" stroke-linejoin="round"/>
<path d="M16 10V60H48V10" stroke="#434D58" stroke-width="2"/>
<path d="M48 44L55 42L50.4094 12.6199C50.1612 11.0319 48.9867 9.74668 47.4275 9.35686L42 8L38 4H26L22 8L16.5725 9.35686C15.0133 9.74668 13.8388 11.0319 13.5906 12.6199L9 42L16 44" stroke="#434D58" stroke-width="2"/>
<path d="M26 4L32 12L27 16L22 8" stroke="#434D58" stroke-width="2"/>
<path d="M38 4L32 12L37 16L42 8" stroke="#434D58" stroke-width="2"/>
<path d="M55 41L48 43" stroke="#434D58" stroke-width="2"/>
<path d="M9 41L16 43" stroke="#434D58" stroke-width="2"/>
<path d="M32 13L32 60" stroke="#434D58" stroke-width="3.5"/>
<path d="M16 48L22 36" stroke="#434D58" stroke-width="2"/>
<path d="M48 48L42 36" stroke="#434D58" stroke-width="2"/>
</svg>
