<svg width="64" height="64" viewBox="0 0 64 64" fill="none" xmlns="http://www.w3.org/2000/svg">
<mask id="path-1-outside-1_7939_32311" maskUnits="userSpaceOnUse" x="7" y="1" width="50" height="62" fill="black">
<rect fill="white" x="7" y="1" width="50" height="62"/>
<path fill-rule="evenodd" clip-rule="evenodd" d="M25 4H39L43 8L49 10L53 42L46.4487 42.9359L48 60H16L17.5513 42.9359L11 42L15 10L21 8L25 4Z"/>
</mask>
<path fill-rule="evenodd" clip-rule="evenodd" d="M25 4H39L43 8L49 10L53 42L46.4487 42.9359L48 60H16L17.5513 42.9359L11 42L15 10L21 8L25 4Z" fill="#F8AF20"/>
<path d="M39 4L41.1213 1.87868C40.5587 1.31607 39.7956 1 39 1V4ZM25 4V1C24.2044 1 23.4413 1.31607 22.8787 1.87868L25 4ZM43 8L40.8787 10.1213C41.208 10.4506 41.6095 10.6988 42.0513 10.846L43 8ZM49 10L51.9768 9.6279C51.8335 8.48152 51.0447 7.51929 49.9487 7.15395L49 10ZM53 42L53.4243 44.9698C55.0442 44.7384 56.1798 43.2516 55.9768 41.6279L53 42ZM46.4487 42.9359L46.0245 39.966C44.4434 40.1919 43.3164 41.6169 43.461 43.2075L46.4487 42.9359ZM48 60V63C48.8429 63 49.6469 62.6454 50.2153 62.023C50.7837 61.4006 51.064 60.5678 50.9877 59.7284L48 60ZM16 60L13.0123 59.7284C12.936 60.5678 13.2163 61.4006 13.7847 62.023C14.3531 62.6454 15.1571 63 16 63V60ZM17.5513 42.9359L20.539 43.2075C20.6836 41.6169 19.5566 40.1919 17.9755 39.966L17.5513 42.9359ZM11 42L8.02317 41.6279C7.8202 43.2516 8.95584 44.7384 10.5757 44.9698L11 42ZM15 10L14.0513 7.15395C12.9553 7.51929 12.1665 8.48152 12.0232 9.6279L15 10ZM21 8L21.9487 10.846C22.3905 10.6988 22.792 10.4506 23.1213 10.1213L21 8ZM39 1H25V7H39V1ZM45.1213 5.87868L41.1213 1.87868L36.8787 6.12132L40.8787 10.1213L45.1213 5.87868ZM49.9487 7.15395L43.9487 5.15395L42.0513 10.846L48.0513 12.8461L49.9487 7.15395ZM55.9768 41.6279L51.9768 9.6279L46.0232 10.3721L50.0232 42.3721L55.9768 41.6279ZM46.873 45.9057L53.4243 44.9698L52.5757 39.0302L46.0245 39.966L46.873 45.9057ZM43.461 43.2075L45.0123 60.2716L50.9877 59.7284L49.4364 42.6643L43.461 43.2075ZM48 57H16V63H48V57ZM18.9877 60.2716L20.539 43.2075L14.5636 42.6643L13.0123 59.7284L18.9877 60.2716ZM10.5757 44.9698L17.127 45.9057L17.9755 39.966L11.4243 39.0302L10.5757 44.9698ZM12.0232 9.6279L8.02317 41.6279L13.9768 42.3721L17.9768 10.3721L12.0232 9.6279ZM20.0513 5.15395L14.0513 7.15395L15.9487 12.8461L21.9487 10.846L20.0513 5.15395ZM22.8787 1.87868L18.8787 5.87868L23.1213 10.1213L27.1213 6.12132L22.8787 1.87868Z" fill="#F8AF20" mask="url(#path-1-outside-1_7939_32311)"/>
<path d="M16 10L18 32V38L16 60H48L46 38V32L48 10" stroke="#434D58" stroke-width="2"/>
<path d="M46 43L53 42L49 10L43 8L39 4H25L21 8L15 10L11 42L18 43" stroke="#434D58" stroke-width="2"/>
<path d="M53 41L46 42" stroke="#434D58" stroke-width="2"/>
<path d="M11 41L18 42" stroke="#434D58" stroke-width="2"/>
<path d="M18 32H46" stroke="#434D58" stroke-width="2"/>
<path d="M18 38H46" stroke="#434D58" stroke-width="2"/>
<path d="M25 4L36 23V32M36 38L32 60" stroke="#434D58" stroke-width="2"/>
<path d="M21 8L24 16L36 23" stroke="#434D58" stroke-width="2"/>
<path d="M43 8L40 16L34.5 20" stroke="#434D58" stroke-width="2"/>
<path d="M39 4L32 16.5" stroke="#434D58" stroke-width="2"/>
<circle cx="29.5" cy="44.5" r="1.5" fill="#434D58"/>
<circle cx="29.5" cy="25.5" r="1.5" fill="#434D58"/>
</svg>
