<svg width="64" height="64" viewBox="0 0 64 64" fill="none" xmlns="http://www.w3.org/2000/svg">
<path d="M23.5631 6.25003C23.2809 6.33596 23.0303 6.5032 22.8426 6.73081L20.5583 9.50164C20.0646 10.1004 19.8095 10.8009 19.7654 11.5012L14.5589 13.1032C14.0417 13.2623 13.6503 13.6877 13.5346 14.2163L6.74211 45.2679C6.45322 46.5886 7.2665 47.8997 8.57802 48.2275L14.5 49.708V51.5369C14.5 52.9176 15.6193 54.0369 17 54.0369H47C48.3807 54.0369 49.5 52.9176 49.5 51.5369V49.708L55.422 48.2275C56.7335 47.8997 57.5468 46.5886 57.2579 45.2679L50.4654 14.2163C50.3497 13.6877 49.9583 13.2623 49.4411 13.1032L44.2346 11.5012C44.1905 10.8009 43.9354 10.1004 43.4417 9.50164L41.1574 6.73081C40.9697 6.5032 40.7191 6.33596 40.4369 6.25003C37.7658 5.43672 34.9325 5 32 5C29.0675 5 26.2342 5.43672 23.5631 6.25003Z" fill="#F8AF20" stroke="#F8AF20" stroke-width="3" stroke-linejoin="round"/>
<path d="M15 14.5371L16 25.5371V51.5371C16 52.0894 16.4477 52.5371 17 52.5371H47C47.5523 52.5371 48 52.0894 48 51.5371V25.5371L49 14.5371" stroke="#434D58" stroke-width="2"/>
<path d="M16 48.5371L8.94182 46.7726C8.41722 46.6414 8.0919 46.117 8.20746 45.5887L15 14.5371L21.5 12.5371M48 48.5371L55.0582 46.7726C55.5828 46.6414 55.9081 46.117 55.7925 45.5887L49 14.5371L42.5 12.5371" stroke="#434D58" stroke-width="2"/>
<path d="M24 7.68499L21.5976 10.599C20.78 11.5907 21.0967 13.0852 22.2464 13.6601L28.4223 16.748C30.6745 17.8741 33.3255 17.8741 35.5777 16.748L41.7536 13.6601C42.9033 13.0852 43.22 11.5907 42.4024 10.599L40 7.68499C37.469 6.91434 34.7829 6.5 32 6.5C29.2171 6.5 26.531 6.91434 24 7.68499Z" stroke="#434D58" stroke-width="2"/>
<path d="M16 51.5371H48" stroke="#434D58" stroke-width="3"/>
<path d="M48 47.5371L56 45.5371" stroke="#434D58" stroke-width="3"/>
<path d="M16 47.5371L8 45.5371" stroke="#434D58" stroke-width="3"/>
<path d="M24 7.53711L32 16.5371L40 7.53711" stroke="#434D58" stroke-width="2"/>
<path d="M29 17V25" stroke="#434D58" stroke-width="2"/>
<path d="M35 17V25" stroke="#434D58" stroke-width="2"/>
</svg>
