<svg width="64" height="64" viewBox="0 0 64 64" fill="none" xmlns="http://www.w3.org/2000/svg">
<path d="M8.51855 45.7648C8.45555 46.1617 8.55444 46.5673 8.79305 46.8907C9.03167 47.214 9.39005 47.4281 9.78787 47.4849L15.684 48.3272L15.5015 52.4334C15.4833 52.8424 15.6331 53.241 15.916 53.5368C16.199 53.8327 16.5906 54 17 54H47C47.4094 54 47.801 53.8327 48.084 53.5368C48.3669 53.241 48.5167 52.8424 48.4985 52.4334L48.316 48.3272L54.2121 47.4849C54.61 47.4281 54.9683 47.214 55.2069 46.8907C55.4456 46.5673 55.5445 46.1617 55.4815 45.7649L50.4815 14.2648C50.3911 13.6958 49.9829 13.2288 49.431 13.0633L39.431 10.0633C39.0467 9.94796 38.6322 9.99145 38.2802 10.184C37.9282 10.3766 37.6679 10.7021 37.5577 11.0879C37.092 12.718 36.3891 14.2405 35.443 15.328C34.5267 16.3814 33.4159 17 32 17C30.5841 17 29.4733 16.3814 28.557 15.328C27.6109 14.2405 26.908 12.718 26.4423 11.0879C26.3321 10.7021 26.0718 10.3766 25.7198 10.184C25.3678 9.99145 24.9533 9.94796 24.569 10.0633L14.569 13.0633C14.0171 13.2288 13.6089 13.6958 13.5185 14.2648L8.51855 45.7648Z" fill="#10D69E" stroke="#10D69E" stroke-width="3" stroke-linejoin="round"/>
<path d="M16 14.5L18 30L17 52.5H47L46 30L48 14.5" stroke="#434D58" stroke-width="2"/>
<path d="M17 47L10 46L15 14.5L25 11.5C26 15 28.134 18.5 32 18.5C35.866 18.5 38 15 39 11.5L49 14.5L54 46L47 47" stroke="#434D58" stroke-width="2"/>
</svg>
