<svg width="24" height="24" viewBox="0 0 24 24" fill="none" xmlns="http://www.w3.org/2000/svg">
<path d="M19.95 21.9C19.7 22.0333 19.4458 22.0541 19.1875 21.9625C18.9291 21.8708 18.7333 21.7 18.6 21.45L17.1 18.45C16.9666 18.2 16.9458 17.9458 17.0375 17.6875C17.1291 17.4291 17.3 17.2333 17.55 17.1C17.8 16.9666 18.0541 16.9458 18.3125 17.0375C18.5708 17.1291 18.7666 17.3 18.9 17.55L20.4 20.55C20.5333 20.8 20.5541 21.0541 20.4625 21.3125C20.3708 21.5708 20.2 21.7666 19.95 21.9ZM7.94996 21.9C7.69996 22.0333 7.4458 22.0541 7.18746 21.9625C6.92913 21.8708 6.7333 21.7 6.59996 21.45L5.09996 18.45C4.96663 18.2 4.9458 17.9458 5.03746 17.6875C5.12913 17.4291 5.29996 17.2333 5.54996 17.1C5.79996 16.9666 6.05413 16.9458 6.31246 17.0375C6.5708 17.1291 6.76663 17.3 6.89996 17.55L8.39996 20.55C8.5333 20.8 8.55413 21.0541 8.46246 21.3125C8.3708 21.5708 8.19996 21.7666 7.94996 21.9Z" fill="#80C3FF"/>
<path d="M3.6125 14.3875C4.6875 15.4625 5.98333 16 7.5 16H17.5C18.75 16 19.8125 15.5625 20.6875 14.6875C21.5625 13.8125 22 12.75 22 11.5C22 10.3167 21.6083 9.3 20.825 8.45C20.0417 7.6 19.075 7.125 17.925 7.025C17.6917 5.59167 17.0208 4.39583 15.9125 3.4375C14.8042 2.47917 13.5 2 12 2C10.9 2 9.8875 2.27083 8.9625 2.8125C8.0375 3.35417 7.30833 4.1 6.775 5.05C5.425 5.23333 4.29167 5.84167 3.375 6.875C2.45833 7.90833 2 9.11667 2 10.5C2 12.0167 2.5375 13.3125 3.6125 14.3875Z" fill="#B2BECC"/>
<path d="M10.86 18.6375C11.1017 18.8792 11.4 19 11.75 19C12.1 19 12.3983 18.8792 12.64 18.6375C12.8817 18.3958 13 18.1 13 17.75C13 17.4 12.8817 17.1042 12.64 16.8625C12.3983 16.6208 12.1 16.5 11.75 16.5C11.4 16.5 11.1017 16.6208 10.86 16.8625C10.6183 17.1042 10.5 17.4 10.5 17.75C10.5 18.1 10.6184 18.3958 10.86 18.6375Z" fill="#80C3FF"/>
<path d="M12.86 21.6375C13.1017 21.8792 13.4 22 13.75 22C14.1 22 14.3983 21.8792 14.64 21.6375C14.8817 21.3958 15 21.1 15 20.75C15 20.4 14.8817 20.1042 14.64 19.8625C14.3983 19.6208 14.1 19.5 13.75 19.5C13.4 19.5 13.1017 19.6208 12.86 19.8625C12.6183 20.1042 12.5 20.4 12.5 20.75C12.5 21.1 12.6183 21.3958 12.86 21.6375Z" fill="#80C3FF"/>
</svg>
