<svg width="24" height="24" viewBox="0 0 24 24" fill="none" xmlns="http://www.w3.org/2000/svg">
<mask id="mask0_7616_75231" style="mask-type:alpha" maskUnits="userSpaceOnUse" x="0" y="0" width="24" height="24">
<rect width="24" height="24" fill="#D9D9D9"/>
</mask>
<g mask="url(#mask0_7616_75231)">
<path d="M5 13H1V11H5V13ZM23 13H19V11H23V13ZM11 5V1H13V5H11ZM11 23V19H13V23H11ZM6.4 7.75L3.875 5.325L5.3 3.85L7.7 6.35L6.4 7.75ZM18.7 20.15L16.275 17.625L17.6 16.25L20.125 18.675L18.7 20.15ZM16.25 6.4L18.675 3.875L20.15 5.3L17.65 7.7L16.25 6.4ZM3.85 18.7L6.375 16.275L7.75 17.6L5.325 20.125L3.85 18.7Z" fill="#95A7BA"/>
</g>
</svg>
