<svg width="24" height="24" viewBox="0 0 24 24" fill="none" xmlns="http://www.w3.org/2000/svg">
<mask id="mask0_7616_75228" style="mask-type:alpha" maskUnits="userSpaceOnUse" x="0" y="0" width="24" height="24">
<rect width="24" height="24" fill="#D9D9D9"/>
</mask>
<g mask="url(#mask0_7616_75228)">
<path d="M8.45 18.9C8.2 19.0333 7.94583 19.0541 7.6875 18.9625C7.42917 18.8708 7.23333 18.7 7.1 18.45L1.1 6.44996C0.966666 6.19996 0.945833 5.9458 1.0375 5.68746C1.12917 5.42913 1.3 5.2333 1.55 5.09996C1.8 4.96663 2.05417 4.9458 2.3125 5.03746C2.57083 5.12913 2.76667 5.29996 2.9 5.54996L8.9 17.55C9.03333 17.8 9.05417 18.0541 8.9625 18.3125C8.87083 18.5708 8.7 18.7666 8.45 18.9ZM13.125 18.9C12.875 19.0333 12.6208 19.0541 12.3625 18.9625C12.1042 18.8708 11.9083 18.7 11.775 18.45L5.775 6.44996C5.64167 6.19996 5.62083 5.9458 5.7125 5.68746C5.80417 5.42913 5.975 5.2333 6.225 5.09996C6.475 4.96663 6.725 4.9458 6.975 5.03746C7.225 5.12913 7.41667 5.29996 7.55 5.54996L13.575 17.55C13.7083 17.8 13.7292 18.0541 13.6375 18.3125C13.5458 18.5708 13.375 18.7666 13.125 18.9ZM17.8 18.875C17.55 19.0083 17.2958 19.0333 17.0375 18.95C16.7792 18.8666 16.5833 18.7 16.45 18.45L10.45 6.44996C10.3167 6.19996 10.2958 5.9458 10.3875 5.68746C10.4792 5.42913 10.65 5.2333 10.9 5.09996C11.15 4.96663 11.4 4.9458 11.65 5.03746C11.9 5.12913 12.0917 5.29996 12.225 5.54996L18.25 17.55C18.3833 17.8 18.4042 18.05 18.3125 18.3C18.2208 18.55 18.05 18.7416 17.8 18.875ZM22.45 18.9C22.2 19.0333 21.9458 19.0541 21.6875 18.9625C21.4292 18.8708 21.2333 18.7 21.1 18.45L15.1 6.44996C14.9667 6.19996 14.9458 5.9458 15.0375 5.68746C15.1292 5.42913 15.3 5.2333 15.55 5.09996C15.8 4.96663 16.0542 4.9458 16.3125 5.03746C16.5708 5.12913 16.7667 5.29996 16.9 5.54996L22.9 17.55C23.0333 17.8 23.0542 18.0541 22.9625 18.3125C22.8708 18.5708 22.7 18.7666 22.45 18.9Z" fill="#95A7BA"/>
</g>
</svg>
