<svg width="24" height="24" viewBox="0 0 24 24" fill="none" xmlns="http://www.w3.org/2000/svg">
<mask id="mask0_7616_75234" style="mask-type:alpha" maskUnits="userSpaceOnUse" x="0" y="0" width="24" height="24">
<rect width="24" height="24" fill="#D9D9D9"/>
</mask>
<g mask="url(#mask0_7616_75234)">
<path d="M8.44996 18.9C8.19996 19.0333 7.9458 19.0541 7.68746 18.9625C7.42913 18.8708 7.2333 18.7 7.09996 18.45L5.09996 14.45C4.96663 14.2 4.9458 13.9458 5.03746 13.6875C5.12913 13.4291 5.29996 13.2333 5.54996 13.1C5.79996 12.9666 6.05413 12.9458 6.31246 13.0375C6.5708 13.1291 6.76663 13.3 6.89996 13.55L8.89996 17.55C9.0333 17.8 9.05413 18.0541 8.96246 18.3125C8.8708 18.5708 8.69996 18.7666 8.44996 18.9ZM10.5 13.9C10.25 14.0333 9.9958 14.0541 9.73746 13.9625C9.47913 13.8708 9.2833 13.7 9.14996 13.45L5.64996 6.44996C5.51663 6.19996 5.4958 5.9458 5.58746 5.68746C5.67913 5.42913 5.84996 5.2333 6.09996 5.09996C6.34996 4.96663 6.60413 4.9458 6.86246 5.03746C7.1208 5.12913 7.31663 5.29996 7.44996 5.54996L10.95 12.55C11.0833 12.8 11.1041 13.0541 11.0125 13.3125C10.9208 13.5708 10.75 13.7666 10.5 13.9ZM17.9 18.875C17.65 19.0083 17.3958 19.0333 17.1375 18.95C16.8791 18.8666 16.6833 18.7 16.55 18.45L13.05 11.45C12.9166 11.2 12.8958 10.9458 12.9875 10.6875C13.0791 10.4291 13.25 10.2333 13.5 10.1C13.75 9.96663 14.0041 9.9458 14.2625 10.0375C14.5208 10.1291 14.7166 10.3 14.85 10.55L18.35 17.55C18.4833 17.8 18.5041 18.05 18.4125 18.3C18.3208 18.55 18.15 18.7416 17.9 18.875ZM19.45 12.9C19.2 13.0333 18.9458 13.0541 18.6875 12.9625C18.4291 12.8708 18.2333 12.7 18.1 12.45L15.1 6.44996C14.9666 6.19996 14.9458 5.9458 15.0375 5.68746C15.1291 5.42913 15.3 5.2333 15.55 5.09996C15.8 4.96663 16.0541 4.9458 16.3125 5.03746C16.5708 5.12913 16.7666 5.29996 16.9 5.54996L19.9 11.55C20.0333 11.8 20.0541 12.0541 19.9625 12.3125C19.8708 12.5708 19.7 12.7666 19.45 12.9Z" fill="#95A7BA"/>
</g>
</svg>
