<svg width="12" height="18" viewBox="0 0 12 18" fill="none" xmlns="http://www.w3.org/2000/svg">
<path d="M11.4844 6.01562C11.4844 6.89062 11.2812 7.71875 10.875 8.5C10.5 9.25 9.96875 9.89062 9.28125 10.4219C8.625 10.9219 7.85938 11.25 6.98438 11.4062V13.5156H9V15.4844H6.98438V17.5H5.01562V15.4844H3V13.5156H5.01562V11.4062C4.14062 11.25 3.35938 10.9219 2.67188 10.4219C2.01562 9.89062 1.48438 9.25 1.07812 8.5C0.703125 7.71875 0.515625 6.89062 0.515625 6.01562C0.515625 4.98438 0.75 4.0625 1.21875 3.25C1.71875 2.40625 2.39062 1.73438 3.23438 1.23438C4.07812 0.734375 5 0.484375 6 0.484375C7 0.484375 7.92188 0.734375 8.76562 1.23438C9.60938 1.73438 10.2656 2.40625 10.7344 3.25C11.2344 4.0625 11.4844 4.98438 11.4844 6.01562ZM2.48438 6.01562C2.48438 6.64062 2.64062 7.21875 2.95312 7.75C3.29688 8.28125 3.71875 8.70312 4.21875 9.01562C4.75 9.32812 5.34375 9.48438 6 9.48438C6.65625 9.48438 7.23438 9.32812 7.73438 9.01562C8.26562 8.70312 8.6875 8.28125 9 7.75C9.34375 7.21875 9.51562 6.64062 9.51562 6.01562C9.51562 5.35938 9.34375 4.76562 9 4.23438C8.6875 3.70313 8.26562 3.28125 7.73438 2.96875C7.23438 2.65625 6.65625 2.5 6 2.5C5.34375 2.5 4.75 2.65625 4.21875 2.96875C3.71875 3.28125 3.29688 3.70313 2.95312 4.23438C2.64062 4.76562 2.48438 5.35938 2.48438 6.01562Z" fill="white"/>
</svg>
